<svg width="1364" height="580" viewBox="0 0 1364 580" fill="none" xmlns="http://www.w3.org/2000/svg">
<path d="M200.601 395.497C185.28 379.332 180.27 352.348 186.795 323.097C191.005 304.226 200.854 286.727 219.055 271.563C230.221 309.567 265.662 343.548 315.497 343.548C365.332 343.548 399.677 310.291 411.128 274.44C427.388 289.007 436.135 305.338 440.097 323.097C446.621 352.345 441.612 379.327 426.295 395.492C396.845 423.284 357.134 440.321 313.445 440.321C269.759 440.321 230.051 423.286 200.601 395.497Z" fill="#C897E9"/>
<path d="M442.87 345.478C443.285 365.748 437.596 383.564 426.295 395.492C396.844 423.284 357.134 440.32 313.445 440.32C269.759 440.32 230.05 423.286 200.601 395.497C189.296 383.569 183.607 365.752 184.021 345.48C184.416 364.025 190.075 380.238 200.601 391.344C230.05 419.132 269.759 436.167 313.445 436.167C357.134 436.167 396.844 419.131 426.295 391.339C436.818 380.233 442.475 364.022 442.87 345.478Z" fill="#B575DF"/>
<path d="M200.601 395.497C185.28 379.332 180.27 352.347 186.795 323.097C191.005 304.226 200.875 286.702 219.076 271.538C227.381 302.989 261.793 343.901 315.499 343.901C369.205 343.901 401.066 305.646 411.128 274.448C427.388 289.015 436.135 305.338 440.097 323.097C446.621 352.345 441.612 379.327 426.295 395.492C396.845 423.284 357.134 440.321 313.445 440.321C269.759 440.321 230.051 423.286 200.601 395.497Z" fill="url(#paint0_radial_1_3085)"/>
<path d="M477.9 275.969C477.9 230.987 459.836 190.225 430.572 160.535L430.568 160.542C430.292 160.254 430.013 159.965 429.73 159.682C408.323 138.275 373.615 138.275 352.207 159.682C330.799 181.09 330.799 215.799 352.207 237.207C358.205 243.205 365.247 247.522 372.749 250.159C413.298 268.175 433.719 294.511 440.096 323.097C446.783 353.073 441.346 380.582 425.122 396.593C457.573 366.553 477.9 323.676 477.9 275.969Z" fill="#9F25F4"/>
<path d="M477.9 275.969C477.9 230.987 459.836 190.225 430.572 160.535L430.568 160.542C430.292 160.254 430.013 159.965 429.73 159.682C408.323 138.275 373.615 138.275 352.207 159.682C330.799 181.09 330.799 215.799 352.207 237.207C358.205 243.205 365.247 247.522 372.749 250.159C413.298 268.175 433.719 294.511 440.096 323.097C446.783 353.073 441.346 380.582 425.122 396.593C457.573 366.553 477.9 323.676 477.9 275.969Z" fill="url(#paint1_radial_1_3085)"/>
<path d="M149 275.969C149 230.987 167.065 190.225 196.328 160.535L196.333 160.542C196.609 160.254 196.887 159.965 197.17 159.682C218.578 138.275 253.286 138.275 274.693 159.682C296.101 181.09 296.101 215.799 274.693 237.207C268.695 243.205 261.653 247.522 254.152 250.159C213.603 268.175 193.181 294.511 186.804 323.097C180.117 353.073 185.555 380.582 201.778 396.593C169.327 366.553 149 323.676 149 275.969Z" fill="#56D4E5"/>
<path d="M149 275.969C149 230.987 167.065 190.225 196.328 160.535L196.333 160.542C196.609 160.254 196.887 159.965 197.17 159.682C218.578 138.275 253.286 138.275 274.693 159.682C296.101 181.09 296.101 215.799 274.693 237.207C268.695 243.205 261.653 247.522 254.152 250.159C213.603 268.175 193.181 294.511 186.804 323.097C180.117 353.073 185.555 380.582 201.778 396.593C169.327 366.553 149 323.676 149 275.969Z" fill="url(#paint2_radial_1_3085)"/>
<path d="M1216.14 385.185C1215.02 392.828 1212.32 399.819 1208.03 406.157C1203.74 412.496 1198.43 417.902 1192.09 422.376C1185.94 426.85 1179.04 430.392 1171.4 433.002C1163.76 435.425 1155.83 436.637 1147.63 436.637C1137.94 436.637 1128.71 434.959 1119.95 431.604C1111.37 428.062 1103.92 423.215 1097.58 417.063C1091.24 410.725 1086.21 403.268 1082.48 394.692C1078.75 386.117 1076.88 376.703 1076.88 366.45C1076.88 356.197 1078.75 346.782 1082.48 338.207C1086.21 329.445 1091.24 321.988 1097.58 315.836C1103.92 309.498 1111.37 304.651 1119.95 301.296C1128.71 297.754 1137.94 295.983 1147.63 295.983C1157.88 295.983 1167.21 297.567 1175.59 300.736C1183.98 303.719 1191.16 308.1 1197.13 313.879C1203.28 319.472 1208.12 326.369 1211.67 334.572C1215.21 342.588 1217.07 351.629 1217.26 361.696V374.559H1111C1112.68 383.694 1116.87 390.871 1123.58 396.091C1130.48 401.31 1138.5 403.92 1147.63 403.92C1154.72 403.92 1161.15 402.336 1166.93 399.167C1172.89 395.811 1177.37 391.15 1180.35 385.185H1216.14ZM1178.95 347.994C1176.15 342.029 1171.96 337.368 1166.37 334.012C1160.96 330.47 1154.72 328.699 1147.63 328.699C1140.36 328.699 1133.74 330.47 1127.78 334.012C1122 337.368 1117.52 342.029 1114.36 347.994H1178.95Z" fill="white"/>
<path d="M1036.68 354.985C1034.63 346.782 1030.53 340.351 1024.37 335.69C1018.41 331.03 1011.23 328.699 1002.84 328.699C997.622 328.699 992.682 329.632 988.021 331.496C983.547 333.174 979.632 335.69 976.277 339.046C972.921 342.215 970.218 346.13 968.167 350.79C966.303 355.264 965.371 360.391 965.371 366.17C965.371 371.949 966.303 377.169 968.167 381.829C970.218 386.49 972.921 390.498 976.277 393.854C979.632 397.023 983.547 399.539 988.021 401.404C992.682 403.081 997.622 403.92 1002.84 403.92C1011.42 403.92 1018.69 401.59 1024.65 396.929C1030.8 392.083 1035 385.371 1037.24 376.796H1071.07C1070.33 385.744 1068 393.854 1064.08 401.124C1060.17 408.394 1055.13 414.733 1048.98 420.139C1042.83 425.359 1035.74 429.46 1027.73 432.443C1019.9 435.239 1011.6 436.637 1002.84 436.637C993.148 436.637 983.92 434.959 975.158 431.604C966.583 428.062 959.126 423.215 952.788 417.063C946.449 410.725 941.416 403.268 937.688 394.692C933.959 386.117 932.095 376.703 932.095 366.45C932.095 356.197 933.959 346.782 937.688 338.207C941.416 329.445 946.449 321.988 952.788 315.836C959.126 309.498 966.583 304.651 975.158 301.296C983.92 297.754 993.148 295.983 1002.84 295.983C1011.79 295.983 1020.18 297.474 1028.01 300.457C1036.02 303.439 1043.02 307.541 1048.98 312.761C1055.13 317.794 1060.07 323.946 1063.8 331.216C1067.72 338.3 1070.05 346.037 1070.79 354.426L1036.68 354.985Z" fill="white"/>
<path d="M889.807 366.45C889.807 360.484 888.782 355.171 886.731 350.511C884.681 345.85 881.884 341.842 878.342 338.487C874.987 335.131 870.886 332.614 866.039 330.937C861.378 329.072 856.345 328.14 850.939 328.14C845.719 328.14 840.779 329.072 836.118 330.937C831.458 332.614 827.356 335.131 823.814 338.487C820.459 341.842 817.756 345.85 815.705 350.511C813.841 355.171 812.909 360.484 812.909 366.45C812.909 372.229 813.841 377.449 815.705 382.109C817.756 386.77 820.459 390.778 823.814 394.133C827.356 397.489 831.458 400.099 836.118 401.963C840.779 403.641 845.719 404.48 850.939 404.48C856.345 404.48 861.378 403.641 866.039 401.963C870.886 400.099 874.987 397.489 878.342 394.133C881.884 390.778 884.681 386.77 886.731 382.109C888.782 377.449 889.807 372.229 889.807 366.45ZM890.087 418.741C884.308 424.706 877.69 429.18 870.233 432.163C862.963 435.146 855.319 436.637 847.303 436.637C837.982 436.637 829.221 434.959 821.018 431.604C812.816 428.062 805.638 423.215 799.486 417.063C793.521 410.725 788.767 403.268 785.225 394.692C781.87 386.117 780.192 376.703 780.192 366.45C780.192 356.197 781.87 346.782 785.225 338.207C788.767 329.445 793.521 321.988 799.486 315.836C805.638 309.498 812.816 304.651 821.018 301.296C829.221 297.754 837.982 295.983 847.303 295.983C855.319 295.983 862.963 297.474 870.233 300.457C877.504 303.439 884.028 307.82 889.807 313.599V297.381H923.363V434.4H892.604L890.087 418.741Z" fill="white"/>
<path d="M662.004 366.45C662.004 372.229 663.029 377.449 665.08 382.109C667.13 386.77 669.833 390.778 673.189 394.133C676.731 397.489 680.832 400.099 685.493 401.963C690.34 403.641 695.466 404.48 700.872 404.48C706.092 404.48 711.032 403.641 715.693 401.963C720.353 400.099 724.361 397.489 727.717 394.133C731.259 390.778 733.962 386.77 735.826 382.109C737.877 377.449 738.902 372.229 738.902 366.45C738.902 360.484 737.877 355.171 735.826 350.511C733.962 345.85 731.259 341.842 727.717 338.487C724.361 335.131 720.353 332.614 715.693 330.937C711.032 329.072 706.092 328.14 700.872 328.14C695.466 328.14 690.34 329.072 685.493 330.937C680.832 332.614 676.731 335.131 673.189 338.487C669.833 341.842 667.13 345.85 665.08 350.511C663.029 355.171 662.004 360.484 662.004 366.45ZM661.724 314.159C667.503 308.193 674.028 303.719 681.298 300.736C688.569 297.567 696.305 295.983 704.508 295.983C713.829 295.983 722.59 297.754 730.793 301.296C738.995 304.651 746.079 309.498 752.045 315.836C758.197 321.988 762.95 329.445 766.306 338.207C769.848 346.782 771.619 356.197 771.619 366.45C771.619 376.703 769.848 386.117 766.306 394.692C762.95 403.268 758.197 410.725 752.045 417.063C746.079 423.215 738.995 428.062 730.793 431.604C722.59 434.959 713.829 436.637 704.508 436.637C696.491 436.637 688.755 435.146 681.298 432.163C674.028 428.994 667.503 424.427 661.724 418.461V484.734H628.168V297.381H658.928L661.724 314.159Z" fill="white"/>
<path d="M545.92 339.605C545.92 342.961 547.691 345.571 551.233 347.435C554.961 349.299 559.528 350.977 564.935 352.468C570.527 353.96 576.493 355.544 582.831 357.222C589.169 358.9 595.041 361.323 600.448 364.492C606.04 367.475 610.608 371.483 614.15 376.516C617.878 381.55 619.742 388.168 619.742 396.37C619.742 408.674 615.175 418.461 606.04 425.731C596.906 433.002 584.229 436.637 568.01 436.637C559.622 436.637 551.885 435.332 544.801 432.722C537.904 430.112 531.938 426.57 526.905 422.096C521.871 417.436 517.957 412.03 515.16 405.878C512.364 399.726 510.873 393.201 510.686 386.304H544.242C544.988 391.896 547.597 396.277 552.071 399.446C556.546 402.429 562.045 403.92 568.57 403.92C573.79 403.92 577.984 403.175 581.153 401.683C584.509 400.005 586.186 397.582 586.186 394.413C586.186 391.803 584.322 389.845 580.594 388.541C577.052 387.236 572.578 386.024 567.172 384.905C561.765 383.6 555.8 382.109 549.275 380.431C542.937 378.567 537.065 376.05 531.658 372.881C526.252 369.526 521.685 365.145 517.957 359.739C514.415 354.332 512.644 347.342 512.644 338.766C512.644 332.801 513.855 327.301 516.279 322.268C518.889 317.048 522.524 312.481 527.184 308.566C531.845 304.651 537.437 301.575 543.962 299.338C550.487 297.101 557.757 295.983 565.773 295.983C573.603 295.983 580.687 297.194 587.025 299.618C593.364 302.041 598.77 305.49 603.244 309.964C607.904 314.438 611.54 319.751 614.15 325.903C616.759 332.055 618.158 338.953 618.344 346.596H584.509C582.458 334.665 575.84 328.699 564.655 328.699C559.249 328.699 554.775 329.632 551.233 331.496C547.691 333.36 545.92 336.063 545.92 339.605Z" fill="white"/>
<path d="M1026.01 233.688C1024.9 241.331 1022.19 248.322 1017.9 254.66C1013.62 260.998 1008.3 266.404 1001.97 270.879C995.813 275.353 988.916 278.895 981.273 281.505C973.629 283.928 965.706 285.14 957.504 285.14C947.81 285.14 938.582 283.462 929.821 280.106C921.245 276.564 913.788 271.717 907.45 265.566C901.112 259.227 896.078 251.77 892.35 243.195C888.622 234.62 886.757 225.206 886.757 214.952C886.757 204.699 888.622 195.285 892.35 186.71C896.078 177.948 901.112 170.491 907.45 164.339C913.788 158.001 921.245 153.154 929.821 149.798C938.582 146.256 947.81 144.485 957.504 144.485C967.757 144.485 977.078 146.07 985.467 149.239C993.856 152.222 1001.03 156.603 1007 162.382C1013.15 167.974 1018 174.872 1021.54 183.074C1025.08 191.091 1026.95 200.132 1027.13 210.199V223.062H920.872C922.55 232.196 926.745 239.373 933.456 244.593C940.353 249.813 948.369 252.423 957.504 252.423C964.588 252.423 971.019 250.838 976.798 247.669C982.764 244.314 987.238 239.653 990.221 233.688H1026.01ZM988.823 196.497C986.026 190.531 981.832 185.871 976.239 182.515C970.833 178.973 964.588 177.202 957.504 177.202C950.234 177.202 943.616 178.973 937.65 182.515C931.871 185.871 927.397 190.531 924.228 196.497H988.823Z" fill="white"/>
<path d="M892.201 177.761H885.211C878.686 177.761 873.093 178.694 868.433 180.558C863.772 182.422 859.857 184.566 856.688 186.989C853.146 189.786 850.163 192.862 847.74 196.217V282.903H814.184V145.884H844.944L847.74 164.339C853.146 158.001 859.671 153.154 867.314 149.798C874.957 146.256 883.253 144.485 892.201 144.485V177.761Z" fill="white"/>
<path d="M765.091 214.952C765.091 208.987 764.066 203.674 762.015 199.013C759.965 194.353 757.168 190.345 753.626 186.989C750.271 183.634 746.169 181.117 741.322 179.439C736.662 177.575 731.629 176.643 726.222 176.643C721.003 176.643 716.062 177.575 711.402 179.439C706.741 181.117 702.64 183.634 699.098 186.989C695.743 190.345 693.039 194.353 690.989 199.013C689.125 203.674 688.193 208.987 688.193 214.952C688.193 220.731 689.125 225.951 690.989 230.612C693.039 235.272 695.743 239.28 699.098 242.636C702.64 245.991 706.741 248.601 711.402 250.466C716.062 252.143 721.003 252.982 726.222 252.982C731.629 252.982 736.662 252.143 741.322 250.466C746.169 248.601 750.271 245.991 753.626 242.636C757.168 239.28 759.965 235.272 762.015 230.612C764.066 225.951 765.091 220.731 765.091 214.952ZM765.371 267.243C759.592 273.209 752.974 277.683 745.517 280.666C738.247 283.648 730.603 285.14 722.587 285.14C713.266 285.14 704.504 283.462 696.302 280.106C688.099 276.564 680.922 271.717 674.77 265.566C668.805 259.227 664.051 251.77 660.509 243.195C657.154 234.62 655.476 225.206 655.476 214.952C655.476 204.699 657.154 195.285 660.509 186.71C664.051 177.948 668.805 170.491 674.77 164.339C680.922 158.001 688.099 153.154 696.302 149.798C704.504 146.256 713.266 144.485 722.587 144.485C730.603 144.485 738.247 145.977 745.517 148.959C752.787 151.942 759.312 156.323 765.091 162.102V145.884L798.647 145.884V282.903H767.887L765.371 267.243Z" fill="white"/>
<path d="M615.268 203.488C613.217 195.285 609.116 188.853 602.964 184.193C596.999 179.532 589.822 177.202 581.433 177.202C576.213 177.202 571.273 178.134 566.612 179.998C562.138 181.676 558.223 184.193 554.868 187.549C551.512 190.718 548.809 194.633 546.758 199.293C544.894 203.767 543.962 208.894 543.962 214.673C543.962 220.452 544.894 225.672 546.758 230.332C548.809 234.993 551.512 239.001 554.868 242.356C558.223 245.525 562.138 248.042 566.612 249.906C571.273 251.584 576.213 252.423 581.433 252.423C590.008 252.423 597.278 250.093 603.244 245.432C609.396 240.585 613.59 233.874 615.827 225.299H649.663C648.917 234.247 646.587 242.356 642.672 249.627C638.757 256.897 633.724 263.235 627.572 268.642C621.42 273.861 614.336 277.963 606.32 280.945C598.49 283.742 590.195 285.14 581.433 285.14C571.739 285.14 562.511 283.462 553.749 280.106C545.174 276.564 537.717 271.717 531.379 265.566C525.04 259.227 520.007 251.77 516.279 243.195C512.55 234.62 510.686 225.206 510.686 214.952C510.686 204.699 512.55 195.285 516.279 186.71C520.007 177.948 525.04 170.491 531.379 164.339C537.717 158.001 545.174 153.154 553.749 149.798C562.511 146.256 571.739 144.485 581.433 144.485C590.381 144.485 598.77 145.977 606.6 148.959C614.616 151.942 621.606 156.043 627.572 161.263C633.724 166.297 638.664 172.448 642.392 179.719C646.307 186.803 648.637 194.539 649.383 202.928L615.268 203.488Z" fill="white"/>
<defs>
<radialGradient id="paint0_radial_1_3085" cx="0" cy="0" r="1" gradientUnits="userSpaceOnUse" gradientTransform="translate(297.248 377.134) rotate(-41.1656) scale(210.236 163.687)">
<stop offset="0.649042" stop-opacity="0"/>
<stop offset="1" stop-opacity="0.5"/>
</radialGradient>
<radialGradient id="paint1_radial_1_3085" cx="0" cy="0" r="1" gradientUnits="userSpaceOnUse" gradientTransform="translate(368.872 220.327) rotate(8.883) scale(110.352 110.352)">
<stop stop-opacity="0"/>
<stop offset="1" stop-opacity="0.3"/>
</radialGradient>
<radialGradient id="paint2_radial_1_3085" cx="0" cy="0" r="1" gradientUnits="userSpaceOnUse" gradientTransform="translate(230.476 185.994) rotate(143.799) scale(115.072 115.072)">
<stop stop-color="white" stop-opacity="0"/>
<stop offset="1" stop-color="white" stop-opacity="0.4"/>
</radialGradient>
</defs>
</svg>
